<svg width="244" height="201" viewBox="0 0 244 201" fill="none" xmlns="http://www.w3.org/2000/svg">
<g filter="url(#filter0_d_520_15)">
<path d="M74.4681 36H53.5319L4 162H28.5106L64.2553 62.965L99.4894 162H124L74.4681 36Z" fill="white"/>
</g>
<g filter="url(#filter1_d_520_15)">
<path d="M140 11C140 9.89544 140.895 9 142 9H144C145.105 9 146 9.89543 146 11V187C146 188.105 145.105 189 144 189H142C140.895 189 140 188.105 140 187V11Z" fill="#F1D00A"/>
</g>
<g filter="url(#filter2_d_520_15)">
<path d="M162 54.1401V36H193.5C206.5 36 231.4 49.0412 231 73.751C230.6 98.4607 216.167 107.253 208 108.56L238 162H213L187.5 113.463H162V95.323H192.5C198.667 94.5058 210.7 89.0475 209.5 73.751C208.3 58.4545 197.667 54.3035 192.5 54.1401H162Z" fill="white"/>
</g>
<defs>
<filter id="filter0_d_520_15" x="0" y="36" width="128" height="134" filterUnits="userSpaceOnUse" color-interpolation-filters="sRGB">
<feFlood flood-opacity="0" result="BackgroundImageFix"/>
<feColorMatrix in="SourceAlpha" type="matrix" values="0 0 0 0 0 0 0 0 0 0 0 0 0 0 0 0 0 0 127 0" result="hardAlpha"/>
<feOffset dy="4"/>
<feGaussianBlur stdDeviation="2"/>
<feComposite in2="hardAlpha" operator="out"/>
<feColorMatrix type="matrix" values="0 0 0 0 0 0 0 0 0 0 0 0 0 0 0 0 0 0 0.25 0"/>
<feBlend mode="normal" in2="BackgroundImageFix" result="effect1_dropShadow_520_15"/>
<feBlend mode="normal" in="SourceGraphic" in2="effect1_dropShadow_520_15" result="shape"/>
</filter>
<filter id="filter1_d_520_15" x="132" y="5" width="22" height="196" filterUnits="userSpaceOnUse" color-interpolation-filters="sRGB">
<feFlood flood-opacity="0" result="BackgroundImageFix"/>
<feColorMatrix in="SourceAlpha" type="matrix" values="0 0 0 0 0 0 0 0 0 0 0 0 0 0 0 0 0 0 127 0" result="hardAlpha"/>
<feOffset dy="4"/>
<feGaussianBlur stdDeviation="4"/>
<feComposite in2="hardAlpha" operator="out"/>
<feColorMatrix type="matrix" values="0 0 0 0 0 0 0 0 0 0 0 0 0 0 0 0 0 0 0.3 0"/>
<feBlend mode="normal" in2="BackgroundImageFix" result="effect1_dropShadow_520_15"/>
<feBlend mode="normal" in="SourceGraphic" in2="effect1_dropShadow_520_15" result="shape"/>
</filter>
<filter id="filter2_d_520_15" x="158" y="36" width="84" height="134" filterUnits="userSpaceOnUse" color-interpolation-filters="sRGB">
<feFlood flood-opacity="0" result="BackgroundImageFix"/>
<feColorMatrix in="SourceAlpha" type="matrix" values="0 0 0 0 0 0 0 0 0 0 0 0 0 0 0 0 0 0 127 0" result="hardAlpha"/>
<feOffset dy="4"/>
<feGaussianBlur stdDeviation="2"/>
<feComposite in2="hardAlpha" operator="out"/>
<feColorMatrix type="matrix" values="0 0 0 0 0 0 0 0 0 0 0 0 0 0 0 0 0 0 0.25 0"/>
<feBlend mode="normal" in2="BackgroundImageFix" result="effect1_dropShadow_520_15"/>
<feBlend mode="normal" in="SourceGraphic" in2="effect1_dropShadow_520_15" result="shape"/>
</filter>
</defs>
</svg>
